<?xml version="1.0" encoding="UTF-8" standalone="no"?>
<!-- Created with Inkscape (http://www.inkscape.org/) -->

<svg
   xmlns:dc="http://purl.org/dc/elements/1.1/"
   xmlns:cc="http://creativecommons.org/ns#"
   xmlns:rdf="http://www.w3.org/1999/02/22-rdf-syntax-ns#"
   xmlns:svg="http://www.w3.org/2000/svg"
   xmlns="http://www.w3.org/2000/svg"
   xmlns:sodipodi="http://sodipodi.sourceforge.net/DTD/sodipodi-0.dtd"
   xmlns:inkscape="http://www.inkscape.org/namespaces/inkscape"
   width="210mm"
   height="297mm"
   viewBox="0 0 210 297"
   version="1.1"
   id="svg8"
   inkscape:version="0.92.3 (2405546, 2018-03-11)"
   sodipodi:docname="InicialesHMF.svg">
  <defs
     id="defs2" />
  <sodipodi:namedview
     id="base"
     pagecolor="#ffffff"
     bordercolor="#666666"
     borderopacity="1.0"
     inkscape:pageopacity="0.0"
     inkscape:pageshadow="2"
     inkscape:zoom="0.35"
     inkscape:cx="400"
     inkscape:cy="560"
     inkscape:document-units="mm"
     inkscape:current-layer="layer1"
     showgrid="false"
     inkscape:window-width="1366"
     inkscape:window-height="745"
     inkscape:window-x="-8"
     inkscape:window-y="-8"
     inkscape:window-maximized="1" />
  <metadata
     id="metadata5">
    <rdf:RDF>
      <cc:Work
         rdf:about="">
        <dc:format>image/svg+xml</dc:format>
        <dc:type
           rdf:resource="http://purl.org/dc/dcmitype/StillImage" />
        <dc:title></dc:title>
      </cc:Work>
    </rdf:RDF>
  </metadata>
  <g
     inkscape:label="Capa 1"
     inkscape:groupmode="layer"
     id="layer1">
    <g
       id="g3836"
       transform="translate(-9.0714319,-9.0714286)">
      <path
         style="stroke-width:0.26458332"
         inkscape:connector-curvature="0"
         d="m 33.655354,96.42845 c -0.568137,3.95474 -0.630814,7.96207 -0.73206,11.95 -0.093,4.35699 -0.100922,8.71511 -0.08355,13.07286 0.01691,3.4913 0.02767,6.98256 0.04582,10.47385 0.134932,2.09861 0.289496,4.21195 0.836612,6.24808 0.326409,1.42941 0.990833,2.74224 1.498291,4.10907 0.434353,1.78597 0.850373,3.57977 1.1396,5.39632 0.305099,1.94204 0.370837,3.89441 0.166018,5.84691 -0.148243,1.6522 -0.594331,3.25399 -0.888373,4.88229 0,0 -10.015161,4.89201 -10.015161,4.89201 v 0 c 0.260088,-1.62242 0.699038,-3.2011 0.919318,-4.82638 0.222305,-1.86639 0.254061,-3.71433 -0.04039,-5.5818 -0.255744,-1.74913 -0.688863,-3.45981 -1.068806,-5.18361 -0.501235,-1.40542 -1.226577,-2.73176 -1.546031,-4.19894 -0.558741,-2.14802 -0.690881,-4.36249 -0.835022,-6.57274 0.01502,-3.50628 0.02022,-7.01253 0.03908,-10.5188 0.02531,-4.36921 0.02249,-8.73877 0.09659,-13.10754 0.08842,-3.97607 0.253105,-7.94953 0.428897,-11.92263 0,0 10.039177,-4.95895 10.039177,-4.95895 z"
         id="path3801" />
      <path
         style="stroke-width:0.26458332"
         inkscape:connector-curvature="0"
         d="m 66.112201,103.14587 c -0.06826,2.46189 -0.01191,4.91676 -0.237122,7.37155 -0.241996,2.02701 -0.396777,4.06198 -0.480272,6.10124 -0.149982,1.57793 0.08952,3.12217 0.420145,4.65946 0.520655,1.83811 0.963644,3.71283 1.677519,5.48845 1.086327,2.84191 1.108676,5.91497 1.687082,8.87357 0.416692,2.55039 1.349853,4.95571 2.423713,7.29019 1.064574,1.74546 1.878962,3.60973 2.7154,5.47107 0.9032,1.81035 1.262732,3.77921 1.479708,5.77036 0.162759,1.95757 0.47937,3.8924 0.64239,5.85307 0.115123,1.65935 0.240742,3.32055 0.15942,4.98326 0,0 -9.995673,4.98215 -9.995673,4.98215 v 0 c 0.214508,-1.60412 0.03556,-3.22609 -0.02967,-4.83792 -0.152918,-1.95289 -0.517107,-3.87034 -0.673378,-5.81857 -0.153363,-1.88364 -0.43943,-3.74652 -1.276826,-5.46532 -0.838046,-1.86251 -1.682223,-3.71025 -2.725306,-5.46906 -1.055434,-2.43777 -2.023438,-4.92783 -2.441347,-7.5669 -0.563145,-2.87702 -0.629772,-5.8667 -1.692937,-8.6249 -0.75289,-1.81968 -1.209569,-3.7448 -1.780072,-5.62584 -0.423256,-1.61093 -0.704712,-3.26334 -0.562903,-4.93366 0.08691,-2.07023 0.255251,-4.13485 0.503343,-6.19233 0.287951,-2.39989 0.316357,-4.8028 0.193368,-7.21796 0,0 9.993421,-5.09191 9.993421,-5.09191 z"
         id="path3803" />
      <path
         style="stroke-width:0.26458332"
         inkscape:connector-curvature="0"
         d="m 35.220467,142.28231 c 4.264703,-3.60001 9.400162,-6.00451 14.347235,-8.55045 2.714152,-1.3968 -0.211473,-0.0266 2.455323,-1.24043 1.991622,-1.08228 4.13014,-1.81144 6.125683,-2.87651 -16.389056,9.31098 -9.06423,5.75805 -5.945962,2.83407 0.504833,-0.4706 1.053211,-0.87979 1.618228,-1.27333 0,0 10.424004,-4.09476 10.424004,-4.09476 v 0 c -0.55645,0.37609 -1.158168,0.68335 -1.647063,1.1497 -1.625923,1.29607 0.732653,-0.62471 -0.94498,0.88919 -3.543909,3.19803 -8.598072,4.52217 -12.205745,7.46375 -2.014548,0.9702 -4.115197,1.75725 -6.090764,2.81412 -1.47543,0.73757 -0.898906,0.44123 -2.404973,1.22829 -0.458946,0.23984 -1.821367,0.98533 -1.37601,0.72111 14.690068,-8.71528 9.083169,-5.48512 6.005989,-3.3564 0,0 -10.360965,4.29165 -10.360965,4.29165 z"
         id="path3805" />
      <path
         style="stroke-width:0.26458332"
         inkscape:connector-curvature="0"
         d="m 81.080916,167.25916 c 0.162385,-4.02607 0.120012,-8.05645 0.117358,-12.08473 -0.102431,-3.05999 -0.07008,-6.09951 0.235199,-9.14506 0.476356,-4.35336 1.056433,-8.69125 1.447231,-13.05427 0.375108,-4.66631 0.314746,-9.35691 0.912982,-14.00412 0.311949,-2.35166 0.766074,-4.6639 1.557948,-6.90103 0.706742,-2.06161 2.12601,-3.58498 3.893725,-4.78712 6.47958,-4.07835 9.268693,-6.49911 15.711661,-6.97555 2.1562,-0.20625 4.08075,0.47496 5.66551,1.91458 0.96797,1.20289 1.77155,2.52495 2.55899,3.85019 1.01785,1.46025 1.8687,3.0372 2.60956,4.65506 1.02231,2.12004 1.33307,4.44449 1.56287,6.75911 0.28395,2.03399 0.59301,4.05851 0.75129,6.10711 0.19081,1.92217 0.62016,3.79796 1.41164,5.56064 0.84246,1.57646 1.35364,3.25497 1.58959,5.01889 0.19795,1.62289 0.13175,3.26024 0.21537,4.88879 -1.36657,-3.93193 0.18959,0.0526 -9.86841,4.56481 -0.24786,0.11119 0.16112,-0.51891 0.23733,-0.77966 0.26985,-0.92327 0.48353,-1.8484 0.67375,-2.79084 0.22999,-2.07005 0.59754,-4.10161 1.09832,-6.12242 0.48474,-1.96728 0.66451,-3.98661 1.01371,-5.97853 0.27347,-1.83943 0.5643,-3.67224 0.89257,-5.50292 0.43463,-1.94712 0.90237,-3.88547 1.46469,-5.80003 0.56088,-2.05475 1.29263,-4.0492 2.02465,-6.04718 0.79053,-1.84315 1.53976,-3.70789 2.56607,-5.43471 0.94515,-1.58657 1.96091,-3.12131 3.29909,-4.40233 4.29442,-3.317186 9.45674,-5.264688 14.12213,-7.980869 1.75459,-0.978591 3.75022,-1.313098 5.72333,-1.513972 2.12483,-0.35305 3.9686,0.332184 5.90765,1.087725 2.09914,0.951249 4.1085,2.092278 6.14019,3.183075 3.33398,1.977136 4.24015,3.516866 5.59516,7.150671 1.28475,4.65426 2.00297,9.44812 2.52756,14.24142 0.27593,2.93068 0.36206,5.87461 0.37283,8.81679 -0.0462,3.24563 -0.0558,6.49113 -0.0498,9.73701 -0.005,2.77316 0.0987,5.54034 -0.15707,8.30425 -0.24343,1.96844 -0.4064,3.94247 -0.48514,5.92396 -0.0492,1.72557 -0.0621,3.45203 -0.0624,5.17823 -0.005,1.8238 -0.001,3.64755 0.006,5.47135 0.006,1.33312 0.008,2.66624 0.01,3.99937 0,0 -9.96943,5.07979 -9.96943,5.07979 v 0 c 0.001,-1.33589 0.004,-2.67178 0.008,-4.00767 0.005,-1.82483 0.005,-3.64962 -0.002,-5.47443 0.001,-1.73974 -0.0182,-3.47994 0.046,-5.21895 0.0792,-2.01088 0.19917,-4.02143 0.49858,-6.01353 0.33066,-2.73862 0.29891,-5.48278 0.28497,-8.23926 0.0168,-3.23397 0.0265,-6.46774 -0.0101,-9.70167 -0.002,-2.93011 0.0153,-5.86335 -0.20522,-8.7875 -0.38758,-4.72197 -0.98192,-9.44577 -2.3593,-13.99565 -1.29963,-3.29038 -2.25361,-4.6638 -5.33781,-6.38398 -2.0103,-1.05453 -3.97864,-2.213339 -6.09286,-3.047255 -1.84808,-0.681675 -3.64533,-1.006928 -5.61414,-0.627288 -1.91822,0.294926 -3.77884,0.801598 -5.44494,1.836732 -0.82359,0.438671 -1.64495,0.893971 -2.48312,1.304421 -0.25263,0.12371 -1.00985,0.49338 -0.76798,0.34975 8.30049,-4.928926 12.07285,-6.642442 8.16647,-4.839291 -1.51747,1.023787 -2.54693,2.504731 -3.45244,4.078511 -1.1312,1.63397 -1.83979,3.45517 -2.71494,5.23146 -0.71517,1.98485 -1.46382,3.95121 -2.0183,5.98901 -0.6205,1.8578 -0.99743,3.77284 -1.50756,5.66122 -0.31888,1.83585 -0.66199,3.66143 -0.90073,5.51017 -0.36844,2.01183 -0.57267,4.04508 -1.00811,6.04532 -0.45766,2.00788 -0.9989,3.9942 -1.09775,6.06492 -0.0667,0.37561 -0.61862,3.48693 -0.78879,3.59916 -9.87825,6.51486 -8.00036,9.25748 -10.28995,5.38224 0.0762,-1.5967 0.0107,-3.20148 -0.0955,-4.79517 -0.19131,-1.66116 -0.61028,-3.25005 -1.4091,-4.73345 -0.8592,-1.87353 -1.3459,-3.8653 -1.59796,-5.91035 -0.13176,-2.04649 -0.39823,-4.07606 -0.72724,-6.10009 -0.16135,-2.19655 -0.41026,-4.40172 -1.37359,-6.41513 -0.75768,-1.57134 -1.62013,-3.09055 -2.60859,-4.52876 -0.72968,-1.2183 -1.47731,-2.43808 -2.36249,-3.54991 -1.487584,-1.20248 -3.267711,-1.43062 -5.136715,-1.18652 -1.002845,0.11535 -1.984063,0.24469 -2.954991,0.53561 -3.642881,1.09151 -8.957495,5.15589 6.567099,-4.20587 -1.77631,0.96622 -3.339312,2.14955 -4.142412,4.08215 -0.838081,2.19602 -1.500878,4.41559 -1.781882,6.76327 -0.838599,4.63903 -0.82447,9.36896 -1.203094,14.05744 -0.295286,4.31272 -0.718006,8.61266 -1.110364,12.91664 -0.32707,3.03672 -0.552794,6.06454 -0.449472,9.12519 -0.0026,3.98839 -0.04691,7.97904 0.117359,11.96514 0,0 -9.962007,5.07589 -9.962007,5.07589 z"
         id="path3807" />
      <path
         style="stroke-width:0.26458332"
         inkscape:connector-curvature="0"
         d="m 178.58306,165.93611 c 0.31635,-4.30999 0.003,-8.60831 -0.34655,-12.90317 -0.66969,-5.91558 -1.19492,-11.84417 -1.51704,-17.78864 -0.27683,-3.59831 -0.15741,-7.22041 -0.43467,-10.81653 -0.19909,-1.72096 -0.87559,-3.28752 -1.50406,-4.87682 -0.46367,-1.24731 -0.97733,-2.43724 -1.21235,-3.75494 -0.23124,-2.79255 -0.19681,-5.60168 -0.19199,-8.40192 0.005,-3.37339 0.0118,-6.74696 -0.0154,-10.120289 -0.017,-1.601898 -0.0204,-3.203884 -0.0319,-4.805833 0,0 9.91675,-5.052282 9.91675,-5.052282 v 0 c -0.0129,1.614151 -0.0181,3.228356 -0.0386,4.84243 -0.0338,3.377608 -0.0388,6.755702 -0.0224,10.133384 0.0264,2.71859 0.005,5.44661 0.27269,8.15475 0.19937,1.25208 0.69182,2.36864 1.11284,3.55482 0.63775,1.70715 1.33111,3.38562 1.56098,5.21567 0.27048,3.64738 -0.0546,7.32211 0.19471,10.97424 0.25116,5.93731 0.68862,11.864 1.48175,17.75626 0.42114,4.26111 0.76116,8.51213 0.76861,12.79697 0,0 -9.99342,5.0919 -9.99342,5.0919 z"
         id="path3809" />
      <path
         style="stroke-width:0.26458332"
         inkscape:connector-curvature="0"
         d="m 182.91865,87.280029 c 4.49979,-0.26062 9.00697,-0.362215 13.51287,-0.448556 4.95147,-0.06653 9.90342,-0.07919 14.85522,-0.10495 3.26584,0.137324 6.50446,-0.230653 9.74746,-0.545745 0,0 -8.91849,6.604044 -8.91849,6.604044 v 0 c -3.21483,0.271854 -6.42923,0.491258 -9.65895,0.358217 -4.92632,-0.01744 -9.8531,-0.01794 -14.77877,0.07519 -4.57913,0.09655 -9.1694,0.189281 -13.72383,0.712399 0,0 8.96449,-6.650598 8.96449,-6.650598 z"
         id="path3811" />
      <path
         style="stroke-width:0.26458332"
         inkscape:connector-curvature="0"
         d="m 192.69602,117.64795 c 3.51534,0.0908 7.03248,0.0659 10.54862,0.0545 2.78154,-0.008 5.56306,-0.0217 8.34455,-0.039 1.71223,-0.0114 3.42449,-0.0159 5.13675,-0.018 1.50588,-10e-4 3.01177,-10e-4 4.51765,-10e-4 0,0 -9.05512,6.57892 -9.05512,6.57892 v 0 c -1.50498,9e-5 -3.00997,2.7e-4 -4.51496,-0.001 -1.69571,-0.002 -3.39141,-0.007 -5.08708,-0.018 -2.74568,-0.0174 -5.49138,-0.0313 -8.23711,-0.039 -3.56616,-0.0116 -7.1332,-0.0344 -10.69862,0.0545 0,0 9.04532,-6.57181 9.04532,-6.57181 z"
         id="path3813" />
    </g>
  </g>
</svg>
